<?xml version="1.0" encoding="UTF-8"?> <svg xmlns="http://www.w3.org/2000/svg" xmlns:xlink="http://www.w3.org/1999/xlink" width="113px" height="96px" viewBox="0 0 113 96" version="1.1"><!-- Generator: Sketch 63.1 (92452) - https://sketch.com --><title>Group 43</title><desc>Created with Sketch.</desc><defs><polygon id="path-1" points="0.334702715 0.378117074 34.0872505 0.378117074 34.0872505 38.6888982 0.334702715 38.6888982"></polygon><polygon id="path-3" points="0.0323399508 0.281883344 61.8284923 0.281883344 61.8284923 95.2342109 0.0323399508 95.2342109"></polygon></defs><g id="Homepage-(v9)" stroke="none" stroke-width="1" fill="none" fill-rule="evenodd"><g id="Homepage_v9---A" transform="translate(-759.000000, -869.000000)"><g id="Services-Section" transform="translate(158.000000, 869.000000)"><g id="services---opt-4"><g id="Cancer" transform="translate(594.000000, 0.000000)"><g id="Group-43" transform="translate(7.000000, 0.000000)"><path d="M41.6785084,52.7201711 C41.3928057,52.7201711 41.014845,52.6234489 40.8253686,52.3417143 C36.9311822,47.4976659 34.1788143,43.3212489 31.9016254,38.9518835 C29.2420117,33.8256045 29.1492575,27.557507 31.6159228,22.1460213 L39.3085654,5.71861596 C39.5907959,5.24393294 40.2544593,4.95823031 40.8253686,5.24393294 C41.3005476,5.52913956 41.5857542,6.09657673 41.3005476,6.667982 L33.607905,23.0953874 C31.4229743,27.8432096 31.4229743,33.3514175 33.8936077,37.9102593 C36.0780424,42.1829025 38.7371601,46.169843 42.5356163,50.9176653 C42.9140731,51.3923483 42.8213189,52.0560117 42.3461399,52.4384366 C42.1536874,52.7201711 41.8714569,52.7201711 41.6785084,52.7201711 Z" id="Fill-1" fill="#0D2D4E"></path><g id="Group-5" transform="translate(57.537336, 56.759590)"><mask id="mask-2" fill="white"><use xlink:href="#path-1"></use></mask><g id="Clip-4"></g><path d="M17.7570634,38.689047 L0.568776404,17.1358586 C0.190319618,16.6611756 0.283073772,15.9970162 0.758252803,15.6150873 C1.23293582,15.2366305 1.89659923,15.3293847 2.2785281,15.8040677 L18.1350242,35.5552462 L31.050172,24.732275 L13.0092412,2.13299832 C12.6312804,1.6583153 12.7240346,0.99415588 13.1987176,0.612227013 C13.6734006,0.233770227 14.337064,0.32652438 14.7189929,0.8012074 L34.0872505,25.1112278 L17.7570634,38.689047 Z" id="Fill-3" fill="#0D2D4E" mask="url(#mask-2)"></path></g><g id="Group-8" transform="translate(21.328495, 0.214277)"><mask id="mask-4" fill="white"><use xlink:href="#path-3"></use></mask><g id="Clip-7"></g><path d="M16.3630231,95.2343597 L0.0323399508,81.6550524 L33.9292709,39.2128351 C46.6509742,23.6425377 50.0709736,14.050171 50.6423789,8.82766574 C50.7391011,7.97502194 50.6423789,7.21463629 50.3571723,6.55047687 L50.3571723,6.45425064 C50.3571723,6.45425064 50.3571723,6.35752839 50.26045,6.35752839 C49.6890447,5.03020158 48.4579442,3.98411329 46.9371729,3.60565651 C44.7527381,3.03425124 41.1437584,2.46681407 36.4926584,2.46681407 L33.7402905,2.46681407 C29.0891905,2.46681407 25.4802107,3.13097349 23.295776,3.60565651 C20.9218649,4.17656576 19.4010936,6.45425064 19.5940421,8.82816175 C20.1654473,13.2897853 22.0646754,20.9829239 33.2656075,35.414379 C33.6435682,35.889062 33.5508141,36.5532214 33.0761311,36.9351503 C32.6014481,37.313607 31.9372886,37.2208529 31.5553598,36.7461699 C20.1609832,21.931794 18.0732708,13.8606946 17.5013695,9.11336837 C17.1234087,5.60111083 19.4005976,2.37009182 22.820597,1.51695202 C26.1438741,0.66034013 29.8456081,0.281883344 33.7397945,0.281883344 L36.4921624,0.281883344 C40.3863488,0.281883344 44.0880827,0.66034013 47.5085781,1.51695202 C49.785767,2.08835728 51.4955187,3.60516049 52.3526266,5.69336897 L60.0447732,22.0240521 C62.5154065,27.3427836 62.4186843,33.607409 59.7595665,38.8299142 C57.2889332,43.4810142 53.7766756,48.7025274 49.1255757,54.4002117 L16.3630231,95.2343597 Z M3.06991447,81.3693498 L15.9850623,92.1918251 L47.415824,52.9756666 C51.9746658,47.4679548 55.3906971,42.3421718 57.7641122,37.78333 C60.1375273,33.2249841 60.2342496,27.6245181 58.0493188,22.968954 L52.4488528,11.0998945 C51.2137841,16.893805 47.2268436,26.3894494 35.5467644,40.6319241 L3.06991447,81.3693498 Z" id="Fill-6" fill="#0D2D4E" mask="url(#mask-4)"></path></g><path d="M43.3886073,20.9112503 C42.9139243,20.9112503 42.4392412,20.5327935 42.342519,19.9613882 C42.2462928,19.390479 42.6282216,18.8230418 43.1956588,18.7263195 C43.4813614,18.7263195 50.3168961,17.5879731 56.4892634,17.5879731 C62.6606387,17.5879731 69.4966694,18.7263195 69.782372,18.7263195 C70.3532813,18.8230418 70.7317381,19.390479 70.6355118,19.9613882 C70.5387896,20.5327935 69.9713524,20.9112503 69.3999471,20.815024 C69.3037209,20.815024 62.3754321,19.6761816 56.4847993,19.6761816 C50.5019084,19.6761816 43.5696515,20.815024 43.5696515,20.815024 C43.4843375,20.9112503 43.3881113,20.9112503 43.3881113,20.9112503 L43.3886073,20.9112503 Z" id="Fill-9" fill="#0D2D4E"></path><path d="M91.6029602,49.9758882 C91.4824294,49.9758882 91.3227137,49.9352153 91.2428558,49.8161725 C89.5995697,47.772109 88.4384067,46.0097801 87.4771364,44.1656093 C86.3551584,42.0025031 86.3159735,39.3577697 87.3566056,37.0741327 L90.603001,30.1418758 C90.7220437,29.9414871 91.0022902,29.8214523 91.2428558,29.9414871 C91.4432445,30.0625139 91.5637753,30.3015915 91.4432445,30.5426531 L88.1973451,37.47491 C87.2752597,39.4783005 87.2752597,41.8026105 88.3178759,43.7261431 C89.2394653,45.529145 90.3619394,47.211616 91.9645526,49.2150065 C92.1242683,49.4153952 92.0850834,49.6956417 91.8846947,49.8568454 C91.8033488,49.9758882 91.6843061,49.9758882 91.6029602,49.9758882" id="Fill-11" fill="#8DD0D8"></path><path d="M91.6029602,49.9758882 C91.4824294,49.9758882 91.3227137,49.9352153 91.2428558,49.8161725 C89.5995697,47.772109 88.4384067,46.0097801 87.4771364,44.1656093 C86.3551584,42.0025031 86.3159735,39.3577697 87.3566056,37.0741327 L90.603001,30.1418758 C90.7220437,29.9414871 91.0022902,29.8214523 91.2428558,29.9414871 C91.4432445,30.0625139 91.5637753,30.3015915 91.4432445,30.5426531 L88.1973451,37.47491 C87.2752597,39.4783005 87.2752597,41.8026105 88.3178759,43.7261431 C89.2394653,45.529145 90.3619394,47.211616 91.9645526,49.2150065 C92.1242683,49.4153952 92.0850834,49.6956417 91.8846947,49.8568454 C91.8033488,49.9758882 91.6843061,49.9758882 91.6029602,49.9758882 Z" id="Stroke-13" stroke="#8DD0D8" stroke-width="0.5" stroke-linecap="square"></path><path d="M105.788245,68.0064524 L98.5350683,58.9115853 C98.3753526,58.7111966 98.4145375,58.4309501 98.6149262,58.2697464 C98.8153148,58.1100306 99.0955613,58.1492156 99.2567651,58.3496042 L105.947464,66.6840857 L111.397639,62.1168117 L103.784854,52.5804943 C103.625138,52.3801056 103.664323,52.0998591 103.864712,51.9386554 C104.065101,51.7789397 104.344851,51.8181246 104.506551,52.0185132 L112.679333,62.2765274 L105.788245,68.0064524 Z" id="Fill-15" fill="#8DD0D8"></path><path d="M105.788245,68.0064524 L98.5350683,58.9115853 C98.3753526,58.7111966 98.4145375,58.4309501 98.6149262,58.2697464 C98.8153148,58.1100306 99.0955613,58.1492156 99.2567651,58.3496042 L105.947464,66.6840857 L111.397639,62.1168117 L103.784854,52.5804943 C103.625138,52.3801056 103.664323,52.0998591 103.864712,51.9386554 C104.065101,51.7789397 104.344851,51.8181246 104.506551,52.0185132 L112.679333,62.2765274 L105.788245,68.0064524 Z" id="Stroke-17" stroke="#8DD0D8" stroke-width="0.5" stroke-linecap="square"></path><path d="M89.9204395,68.0064524 L83.0293516,62.2760314 L97.3328356,44.3660476 C102.701664,37.795879 104.144562,33.7484251 104.386119,31.5446459 C104.426792,31.1845416 104.386119,30.8636221 104.265093,30.5838716 L104.265093,30.5427027 C104.265093,30.5427027 104.265093,30.5020297 104.22442,30.5020297 C103.983854,29.9420327 103.464034,29.5005825 102.822195,29.3408668 C101.90011,29.0998052 100.377354,28.8607276 98.4146367,28.8607276 L97.2534738,28.8607276 C95.2907562,28.8607276 93.7680009,29.1404781 92.8459154,29.3408668 C91.8439722,29.5819284 91.2026293,30.5431987 91.2839752,31.5446459 C91.5250368,33.4275056 92.3265914,36.673901 97.0530851,42.7634344 C97.2128008,42.963823 97.1736159,43.2440695 96.9732273,43.4052733 C96.7728386,43.564989 96.4925921,43.5258041 96.3313884,43.3254154 C91.5230527,37.0741823 90.6421363,33.6680712 90.4010747,31.6646807 C90.241359,30.1830943 91.2021333,28.8195587 92.6455268,28.4594543 C94.0477513,28.0983579 95.6096916,27.9381462 97.2529778,27.9381462 L98.4146367,27.9381462 C100.057923,27.9381462 101.619863,28.0983579 103.063257,28.4594543 C104.024031,28.7005159 104.745728,29.3408668 105.10732,30.2217832 L108.353715,37.1133672 C109.395836,39.3578193 109.355163,42.0010647 108.232689,44.2048438 C107.190568,46.1675614 105.708486,48.3713406 103.745768,50.7750124 L89.9204395,68.0064524 Z M84.3110453,62.1555006 L89.7612198,66.7227746 L103.024072,50.1743424 C104.947604,47.8500325 106.38951,45.6869262 107.390957,43.7633936 C108.392404,41.8398609 108.433077,39.4763661 107.511488,37.5121605 L105.147993,32.5034362 C104.626685,34.9482769 102.944214,38.955058 98.0153475,44.9652295 L84.3110453,62.1555006 Z" id="Fill-19" fill="#8DD0D8"></path><path d="M89.9204395,68.0064524 L83.0293516,62.2760314 L97.3328356,44.3660476 C102.701664,37.795879 104.144562,33.7484251 104.386119,31.5446459 C104.426792,31.1845416 104.386119,30.8636221 104.265093,30.5838716 L104.265093,30.5427027 C104.265093,30.5427027 104.265093,30.5020297 104.22442,30.5020297 C103.983854,29.9420327 103.464034,29.5005825 102.822195,29.3408668 C101.90011,29.0998052 100.377354,28.8607276 98.4146367,28.8607276 L97.2534738,28.8607276 C95.2907562,28.8607276 93.7680009,29.1404781 92.8459154,29.3408668 C91.8439722,29.5819284 91.2026293,30.5431987 91.2839752,31.5446459 C91.5250368,33.4275056 92.3265914,36.673901 97.0530851,42.7634344 C97.2128008,42.963823 97.1736159,43.2440695 96.9732273,43.4052733 C96.7728386,43.564989 96.4925921,43.5258041 96.3313884,43.3254154 C91.5230527,37.0741823 90.6421363,33.6680712 90.4010747,31.6646807 C90.241359,30.1830943 91.2021333,28.8195587 92.6455268,28.4594543 C94.0477513,28.0983579 95.6096916,27.9381462 97.2529778,27.9381462 L98.4146367,27.9381462 C100.057923,27.9381462 101.619863,28.0983579 103.063257,28.4594543 C104.024031,28.7005159 104.745728,29.3408668 105.10732,30.2217832 L108.353715,37.1133672 C109.395836,39.3578193 109.355163,42.0010647 108.232689,44.2048438 C107.190568,46.1675614 105.708486,48.3713406 103.745768,50.7750124 L89.9204395,68.0064524 Z M84.3110453,62.1555006 L89.7612198,66.7227746 L103.024072,50.1743424 C104.947604,47.8500325 106.38951,45.6869262 107.390957,43.7633936 C108.392404,41.8398609 108.433077,39.4763661 107.511488,37.5121605 L105.147993,32.5034362 C104.626685,34.9482769 102.944214,38.955058 98.0153475,44.9652295 L84.3110453,62.1555006 Z" id="Stroke-21" stroke="#8DD0D8" stroke-width="0.5" stroke-linecap="square"></path><path d="M92.3247065,36.5530726 C92.1243179,36.5530726 91.9239292,36.3933569 91.8832563,36.1522953 C91.8425834,35.9112337 92.0037871,35.6721561 92.2428646,35.6314832 C92.3638915,35.6314832 95.2481984,35.150848 97.8527549,35.150848 C100.457311,35.150848 103.341618,35.6314832 103.462149,35.6314832 C103.703211,35.6721561 103.862926,35.9112337 103.822253,36.1522953 C103.781581,36.3933569 103.542007,36.5530726 103.300945,36.5123996 C103.260272,36.5123996 100.336781,36.0317645 97.8512668,36.0317645 C95.3265682,36.0317645 92.4010923,36.5123996 92.4010923,36.5123996 C92.3648835,36.5530726 92.3242105,36.5530726 92.3242105,36.5530726 L92.3247065,36.5530726 Z" id="Fill-23" fill="#8DD0D8"></path><path d="M92.3247065,36.5530726 C92.1243179,36.5530726 91.9239292,36.3933569 91.8832563,36.1522953 C91.8425834,35.9112337 92.0037871,35.6721561 92.2428646,35.6314832 C92.3638915,35.6314832 95.2481984,35.150848 97.8527549,35.150848 C100.457311,35.150848 103.341618,35.6314832 103.462149,35.6314832 C103.703211,35.6721561 103.862926,35.9112337 103.822253,36.1522953 C103.781581,36.3933569 103.542007,36.5530726 103.300945,36.5123996 C103.260272,36.5123996 100.336781,36.0317645 97.8512668,36.0317645 C95.3265682,36.0317645 92.4010923,36.5123996 92.4010923,36.5123996 C92.3648835,36.5530726 92.3242105,36.5530726 92.3242105,36.5530726 L92.3247065,36.5530726 Z" id="Stroke-25" stroke="#8DD0D8" stroke-width="0.5" stroke-linecap="square"></path><g id="RED/-ORG-ribbon" transform="translate(0.345621, 27.938146)"><path d="M8.57360864,22.037742 C8.45307784,22.037742 8.29336213,21.9970691 8.21350428,21.8780263 C6.57021813,19.8339629 5.40905517,18.0716339 4.44778486,16.2274631 C3.32580681,14.0643569 3.2866219,11.4196235 4.32725406,9.13598649 L7.57364942,2.20372956 C7.69269219,2.00334091 7.97293869,1.88330612 8.21350428,2.00334091 C8.41389293,2.12436772 8.53442373,2.36344527 8.41389293,2.60450686 L5.16799358,9.5367638 C4.24590817,11.5401543 4.24590817,13.8644643 5.28852437,15.7879969 C6.21011377,17.5909988 7.33258783,19.2734698 8.93520103,21.2768603 C9.09491674,21.477249 9.05573183,21.7574955 8.85534318,21.9186992 C8.77399729,22.037742 8.65495453,22.037742 8.57360864,22.037742" id="Fill-27" fill="#FB951D"></path><path d="M8.57360864,22.037742 C8.45307784,22.037742 8.29336213,21.9970691 8.21350428,21.8780263 C6.57021813,19.8339629 5.40905517,18.0716339 4.44778486,16.2274631 C3.32580681,14.0643569 3.2866219,11.4196235 4.32725406,9.13598649 L7.57364942,2.20372956 C7.69269219,2.00334091 7.97293869,1.88330612 8.21350428,2.00334091 C8.41389293,2.12436772 8.53442373,2.36344527 8.41389293,2.60450686 L5.16799358,9.5367638 C4.24590817,11.5401543 4.24590817,13.8644643 5.28852437,15.7879969 C6.21011377,17.5909988 7.33258783,19.2734698 8.93520103,21.2768603 C9.09491674,21.477249 9.05573183,21.7574955 8.85534318,21.9186992 C8.77399729,22.037742 8.65495453,22.037742 8.57360864,22.037742 Z" id="Stroke-29" stroke="#FB951D" stroke-width="0.5" stroke-linecap="square"></path><path d="M22.7588436,40.0683062 L15.5056672,30.9734391 C15.3459515,30.7730504 15.3851364,30.4928039 15.585525,30.3316002 C15.7859137,30.1718844 16.0661602,30.2110694 16.2273639,30.411458 L22.9180632,38.7459395 L28.3682378,34.1786655 L20.755453,24.6423481 C20.5957373,24.4419594 20.6349222,24.1617129 20.8353109,24.0005092 C21.0356996,23.8407935 21.31545,23.8799784 21.4771498,24.080367 L29.6499315,34.3383812 L22.7588436,40.0683062 Z" id="Fill-31" fill="#FB951D"></path><path d="M22.7588436,40.0683062 L15.5056672,30.9734391 C15.3459515,30.7730504 15.3851364,30.4928039 15.585525,30.3316002 C15.7859137,30.1718844 16.0661602,30.2110694 16.2273639,30.411458 L22.9180632,38.7459395 L28.3682378,34.1786655 L20.755453,24.6423481 C20.5957373,24.4419594 20.6349222,24.1617129 20.8353109,24.0005092 C21.0356996,23.8407935 21.31545,23.8799784 21.4771498,24.080367 L29.6499315,34.3383812 L22.7588436,40.0683062 Z" id="Stroke-33" stroke="#FB951D" stroke-width="0.5" stroke-linecap="square"></path><path d="M6.89108798,40.0683062 L1.59872116e-14,34.3378852 L14.3034841,16.4279014 C19.6723127,9.85773285 21.1152102,5.81027889 21.3567678,3.60649973 C21.3974407,3.24639537 21.3567678,2.92547592 21.235741,2.64572542 L21.235741,2.60455647 C21.235741,2.60455647 21.235741,2.56388352 21.1950681,2.56388352 C20.9545025,2.00388652 20.4346824,1.56243627 19.7928435,1.40272056 C18.8707581,1.16165897 17.3480027,0.922581418 15.3852852,0.922581418 L14.2241222,0.922581418 C12.2614047,0.922581418 10.7386493,1.20233191 9.81656389,1.40272056 C8.81462063,1.64378216 8.17327775,2.60505248 8.25462363,3.60649973 C8.49568523,5.48935944 9.29723984,8.7357548 14.0237336,14.8252882 C14.1834493,15.0256768 14.1442644,15.3059233 13.9438757,15.4671271 C13.7434871,15.6268428 13.4632406,15.5876579 13.3020368,15.3872692 C8.49370118,9.1360361 7.61278473,5.72992502 7.37172314,3.72653451 C7.21200743,2.24494812 8.17278173,0.881412462 9.61617524,0.521308102 C11.0183998,0.160211719 12.5803401,1.77635684e-14 14.2241222,1.77635684e-14 L15.3852852,1.77635684e-14 C17.0285713,1.77635684e-14 18.5905116,0.160211719 20.0339051,0.521308102 C20.9951754,0.762369699 21.7163762,1.40272056 22.0779685,2.28363702 L25.3243639,9.17522101 C26.3664841,11.4196731 26.3258112,14.0629185 25.2033371,16.2666976 C24.1612169,18.2294152 22.6791345,20.4331944 20.7164169,22.8368662 L6.89108798,40.0683062 Z M1.28169375,34.2173544 L6.73186828,38.7846284 L19.9947202,22.2361962 C21.9182528,19.9118863 23.3601583,17.74878 24.3616056,15.8252474 C25.3630528,13.9017147 25.4042218,11.5382199 24.4821364,9.57401426 L22.1186415,4.56528998 C21.5973334,7.01013074 19.9148623,11.0169118 14.9859959,17.0270833 L1.28169375,34.2173544 Z" id="Fill-35" fill="#FB951D"></path><path d="M6.89108798,40.0683062 L1.59872116e-14,34.3378852 L14.3034841,16.4279014 C19.6723127,9.85773285 21.1152102,5.81027889 21.3567678,3.60649973 C21.3974407,3.24639537 21.3567678,2.92547592 21.235741,2.64572542 L21.235741,2.60455647 C21.235741,2.60455647 21.235741,2.56388352 21.1950681,2.56388352 C20.9545025,2.00388652 20.4346824,1.56243627 19.7928435,1.40272056 C18.8707581,1.16165897 17.3480027,0.922581418 15.3852852,0.922581418 L14.2241222,0.922581418 C12.2614047,0.922581418 10.7386493,1.20233191 9.81656389,1.40272056 C8.81462063,1.64378216 8.17327775,2.60505248 8.25462363,3.60649973 C8.49568523,5.48935944 9.29723984,8.7357548 14.0237336,14.8252882 C14.1834493,15.0256768 14.1442644,15.3059233 13.9438757,15.4671271 C13.7434871,15.6268428 13.4632406,15.5876579 13.3020368,15.3872692 C8.49370118,9.1360361 7.61278473,5.72992502 7.37172314,3.72653451 C7.21200743,2.24494812 8.17278173,0.881412462 9.61617524,0.521308102 C11.0183998,0.160211719 12.5803401,1.77635684e-14 14.2241222,1.77635684e-14 L15.3852852,1.77635684e-14 C17.0285713,1.77635684e-14 18.5905116,0.160211719 20.0339051,0.521308102 C20.9951754,0.762369699 21.7163762,1.40272056 22.0779685,2.28363702 L25.3243639,9.17522101 C26.3664841,11.4196731 26.3258112,14.0629185 25.2033371,16.2666976 C24.1612169,18.2294152 22.6791345,20.4331944 20.7164169,22.8368662 L6.89108798,40.0683062 Z M1.28169375,34.2173544 L6.73186828,38.7846284 L19.9947202,22.2361962 C21.9182528,19.9118863 23.3601583,17.74878 24.3616056,15.8252474 C25.3630528,13.9017147 25.4042218,11.5382199 24.4821364,9.57401426 L22.1186415,4.56528998 C21.5973334,7.01013074 19.9148623,11.0169118 14.9859959,17.0270833 L1.28169375,34.2173544 Z" id="Stroke-37" stroke="#FB951D" stroke-width="0.5" stroke-linecap="square"></path><path d="M9.29535499,8.6149264 C9.09496634,8.6149264 8.89457769,8.45521069 8.85390475,8.21414909 C8.8132318,7.9730875 8.97443554,7.73400995 9.21400911,7.693337 C9.3345399,7.693337 12.2188469,7.21270185 14.8234033,7.21270185 C17.4279598,7.21270185 20.3122668,7.693337 20.4327976,7.693337 C20.6738592,7.73400995 20.8335749,7.9730875 20.7929019,8.21414909 C20.752229,8.45521069 20.5126554,8.6149264 20.2715938,8.57425345 C20.2309209,8.57425345 17.307429,8.0936183 14.8219153,8.0936183 C12.2972167,8.0936183 9.37174077,8.57425345 9.37174077,8.57425345 C9.33553193,8.6149264 9.29485898,8.6149264 9.29485898,8.6149264 L9.29535499,8.6149264 Z" id="Fill-39" fill="#FB951D"></path><path d="M9.29535499,8.6149264 C9.09496634,8.6149264 8.89457769,8.45521069 8.85390475,8.21414909 C8.8132318,7.9730875 8.97443554,7.73400995 9.21400911,7.693337 C9.3345399,7.693337 12.2188469,7.21270185 14.8234033,7.21270185 C17.4279598,7.21270185 20.3122668,7.693337 20.4327976,7.693337 C20.6738592,7.73400995 20.8335749,7.9730875 20.7929019,8.21414909 C20.752229,8.45521069 20.5126554,8.6149264 20.2715938,8.57425345 C20.2309209,8.57425345 17.307429,8.0936183 14.8219153,8.0936183 C12.2972167,8.0936183 9.37174077,8.57425345 9.37174077,8.57425345 C9.33553193,8.6149264 9.29485898,8.6149264 9.29485898,8.6149264 L9.29535499,8.6149264 Z" id="Stroke-41" stroke="#FB951D" stroke-width="0.5" stroke-linecap="square"></path></g></g></g></g></g></g></g></svg> 