<?xml version="1.0" encoding="UTF-8"?> <svg xmlns="http://www.w3.org/2000/svg" xmlns:xlink="http://www.w3.org/1999/xlink" width="120px" height="84px" viewBox="0 0 120 84" version="1.1"><title>heart-vascular-care-ico</title><defs><polygon id="path-1" points="0.0155039369 0.0882778105 63.6411111 0.0882778105 63.6411111 32.9187213 0.0155039369 32.9187213"></polygon><polygon id="path-3" points="0.300904932 0.288201087 6.29860323 0.288201087 6.29860323 2.6064209 0.300904932 2.6064209"></polygon></defs><g id="Homepage-(v8)" stroke="none" stroke-width="1" fill="none" fill-rule="evenodd"><g id="Homepage-A" transform="translate(-944.000000, -875.000000)"><g id="Services-Section" transform="translate(158.000000, 869.000000)"><g id="heart-vascular-care-ico" transform="translate(786.000000, 6.000000)"><path d="M22.2857425,41.8195727 C23.2093213,41.8195727 23.754103,40.7958468 23.2482674,40.023416 C20.6300699,36.0263414 19.2187377,31.3161824 19.2178104,26.3946017 C19.2164195,19.9847239 21.6046495,13.9332429 25.9429661,9.35475878 C30.2395547,4.81707531 36.0504045,2.318498 42.3054252,2.318498 L42.3058888,2.31803436 C48.5609095,2.31803436 54.3717593,4.81661167 58.6651024,9.35058598 L62.8759169,13.8349504 L67.0932224,9.39834131 C71.4162387,4.83608472 77.2270885,2.32359808 83.4556815,2.32359808 C89.6842744,2.32359808 95.4955879,4.83608472 99.8190678,9.39834131 C104.157848,13.9777527 106.547469,20.030161 106.547469,26.4405024 C106.547469,31.3453919 105.146801,36.0393234 102.545294,40.0248069 C102.041313,40.7977014 102.585631,41.8195727 103.508746,41.8195727 C103.896816,41.8195727 104.264022,41.6280877 104.476371,41.3030733 C107.327782,36.9401836 108.865689,31.8053267 108.865689,26.4405024 C108.865689,19.4343785 106.250737,12.8153973 101.501168,7.80386972 C96.7362991,2.7751873 90.3273486,0.00537826997 83.4556815,0.00537826997 C76.5840143,0.00537826997 70.1755274,2.7751873 65.4120494,7.80247879 L62.8856534,10.4591587 L60.3518391,7.76028719 C55.6129342,2.7561779 49.204911,0.000278186378 42.3072798,0.000278186378 L42.3054252,0.000278186378 C35.4073303,0.000278186378 28.9988435,2.7561779 24.2594749,7.76028719 C19.5117607,12.7708875 16.897736,19.3889414 16.8995896,26.395529 C16.9005179,31.7775081 18.4486251,36.9299835 21.3167266,41.3044642 C21.5295392,41.6285514 21.8962816,41.8195727 22.283888,41.8195727 L22.2857425,41.8195727 Z" id="Fill-1" fill="#0D2D4E"></path><g id="Group-5" transform="translate(31.064145, 50.552492)"><mask id="mask-2" fill="white"><use xlink:href="#path-1"></use></mask><g id="Clip-4"></g><path d="M62.4796868,0.0882778105 C62.1611633,0.0882778105 61.8565493,0.219489052 61.638173,0.450847389 C58.3013274,3.97593244 54.9649454,7.5000902 51.6294907,11.0270298 C45.7523399,17.2412499 39.8756526,23.4554699 33.9980381,29.6571715 C33.4268288,30.2566632 32.6233338,30.600687 31.794802,30.600687 C30.9537519,30.600687 30.1711209,30.2654724 29.5952751,29.661808 L2.02005038,0.451774677 C1.80074679,0.219952696 1.4961327,0.0882778105 1.17714566,0.0882778105 L1.17668201,0.0882778105 C0.160374447,0.0882778105 -0.364006875,1.30395228 0.334240933,2.04300076 L27.9131748,31.2576705 C28.9202094,32.3133878 30.3352508,32.9189068 31.794802,32.9189068 C33.2543532,32.9189068 34.6693946,32.3133878 35.6782838,31.2548886 C41.5586802,25.0494778 47.4362947,18.8347942 53.3134456,12.6201105 C56.6493639,9.09270721 59.9852822,5.5680858 63.3216642,2.04392804 C64.0208393,1.30487957 63.4969216,0.0882778105 62.4796868,0.0882778105" id="Fill-3" fill="#0D2D4E" mask="url(#mask-2)"></path></g><path d="M72.9777915,54.4004125 C72.9346727,54.4004125 72.8910901,54.3980943 72.8484349,54.3929942 C72.4033367,54.3433843 72.0268578,54.0415521 71.8812736,53.6182452 L64.1824656,31.2209962 L59.0554906,48.7509108 C58.9279885,49.1867362 58.5580007,49.5080414 58.1091933,49.5729516 C57.6603859,49.638789 57.2138968,49.4352493 56.9686292,49.0532067 L48.3564425,35.6807875 L42.0782397,46.5518475 C41.8714544,46.9107079 41.4889482,47.1314025 41.0744505,47.1314025 L15.6514611,47.1314025 C15.0111688,47.1314025 14.4923512,46.6125849 14.4923512,45.9722926 C14.4923512,45.3320003 15.0111688,44.8131827 15.6514611,44.8131827 L40.4054122,44.8131827 L47.298407,32.8766688 C47.5005558,32.5266176 47.8705437,32.3073141 48.2743776,32.2975775 C48.6935117,32.2743953 49.0579359,32.4890625 49.2767758,32.8289135 L57.543084,45.6639693 L62.9807004,27.0709191 C63.1225755,26.5864112 63.5616463,26.249342 64.0660909,26.2372873 C64.5682173,26.2196688 65.0258339,26.5419014 65.1895003,27.0194547 L73.2786965,50.5526313 L82.4917657,35.6705874 C82.7106056,35.3163634 83.0921846,35.1044781 83.518737,35.1220966 C83.9350893,35.1369332 84.3106409,35.3738552 84.5039805,35.7429158 L89.2540128,44.8131827 L103.426681,44.8131827 C104.066974,44.8131827 104.585791,45.3320003 104.585791,45.9722926 C104.585791,46.6125849 104.066974,47.1314025 103.426681,47.1314025 L88.5529832,47.1314025 C88.1217943,47.1314025 87.726306,46.8921622 87.5260118,46.5101196 L83.3930895,38.6184357 L73.963035,53.8514581 C73.7502224,54.1950182 73.3755981,54.4004125 72.9777915,54.4004125" id="Fill-6" fill="#FB951D"></path><path d="M11.1447027,47.1315416 L7.46522417,47.1315416 C6.82493186,47.1315416 6.30611426,46.612724 6.30611426,45.9724317 C6.30611426,45.3321393 6.82493186,44.8133218 7.46522417,44.8133218 L11.1447027,44.8133218 C11.784995,44.8133218 12.3038126,45.3321393 12.3038126,45.9724317 C12.3038126,46.612724 11.784995,47.1315416 11.1447027,47.1315416" id="Fill-8" fill="#8DD0D8"></path><path d="M3.16947013,47.1315416 L1.15910991,47.1315416 C0.518817594,47.1315416 0,46.612724 0,45.9724317 C0,45.3321393 0.518817594,44.8133218 1.15910991,44.8133218 L3.16947013,44.8133218 C3.80976244,44.8133218 4.32858004,45.3321393 4.32858004,45.9724317 C4.32858004,46.612724 3.80976244,47.1315416 3.16947013,47.1315416" id="Fill-10" fill="#8DD0D8"></path><g id="Group-14" transform="translate(112.665483, 44.525121)"><mask id="mask-4" fill="white"><use xlink:href="#path-3"></use></mask><g id="Clip-13"></g><path d="M5.13949333,2.6064209 L1.46001484,2.6064209 C0.82018617,2.6064209 0.300904932,2.08760331 0.300904932,1.44731099 C0.300904932,0.807018681 0.82018617,0.288201087 1.46001484,0.288201087 L5.13949333,0.288201087 C5.77978564,0.288201087 6.29860323,0.807018681 6.29860323,1.44731099 C6.29860323,2.08760331 5.77978564,2.6064209 5.13949333,2.6064209" id="Fill-12" fill="#8DD0D8" mask="url(#mask-4)"></path></g><path d="M109.830207,47.1315416 L107.819383,47.1315416 C107.179091,47.1315416 106.660274,46.612724 106.660274,45.9724317 C106.660274,45.3321393 107.179091,44.8133218 107.819383,44.8133218 L109.830207,44.8133218 C110.4705,44.8133218 110.989317,45.3321393 110.989317,45.9724317 C110.989317,46.612724 110.4705,47.1315416 109.830207,47.1315416" id="Fill-15" fill="#8DD0D8"></path></g></g></g></g></svg> 