<?xml version="1.0" encoding="UTF-8"?> <svg xmlns="http://www.w3.org/2000/svg" xmlns:xlink="http://www.w3.org/1999/xlink" width="96px" height="91px" viewBox="0 0 96 91" version="1.1"><!-- Generator: Sketch 63.1 (92452) - https://sketch.com --><title>Group 58</title><desc>Created with Sketch.</desc><defs><polygon id="path-1" points="0.151990562 0.113997596 18.4467838 0.113997596 18.4467838 28.3466014 0.151990562 28.3466014"></polygon></defs><g id="Homepage-(v9)" stroke="none" stroke-width="1" fill="none" fill-rule="evenodd"><g id="Homepage_v9---A" transform="translate(-762.000000, -1074.000000)"><g id="Services-Section" transform="translate(158.000000, 869.000000)"><g id="services---opt-4"><g id="Neuro" transform="translate(572.000000, 205.000000)"><g id="Group-58" transform="translate(32.000000, 0.000000)"><path d="M85.1113722,27.6345509 C84.3834234,23.8025959 82.5339019,20.10662 79.7672876,16.9468929 C72.4852438,8.63631476 64.1470609,6.81490922 57.9973251,12.1983562 C56.2699803,13.7120194 55.0916644,15.6975201 54.3989884,18.2719232 L52.6941365,17.8123545 C53.470138,14.932765 54.8636692,12.5970922 56.8353675,10.8692363 C63.6931153,4.85752448 73.216771,6.79037162 81.0958963,15.7839129 C84.0726138,19.1798144 86.061693,23.1630847 86.8479185,27.3043158 L85.1113722,27.6345509 Z" id="Fill-1" fill="#0D2D4E"></path><path d="M82.0074681,65.8497147 L81.6859234,64.1147019 C89.4622975,62.673118 93.8172102,55.896651 93.6316446,45.5213361 C93.5064006,38.475978 91.6354086,33.1216693 88.2262159,30.0350438 C85.759676,27.8057007 82.5621201,26.8379991 78.7301651,27.1503423 L78.5854955,25.390792 C82.9317177,25.0360192 86.5704392,26.1560584 89.4111775,28.7263719 C93.1935462,32.1478334 95.2623725,37.94433 95.3983517,45.4896417 C95.5977197,56.6476038 90.5915383,64.2598827 82.0074681,65.8497147" id="Fill-3" fill="#8DD0D8"></path><path d="M19.0492539,46.4680785 C16.8602956,46.4680785 14.7209237,45.2851617 14.5834109,45.2069481 L15.4488725,43.6667026 C15.4861901,43.6891954 19.4362323,45.8234553 21.0296427,43.8752722 C21.8756787,42.8411146 22.7273378,41.9684962 23.5595714,41.2783763 C23.9358146,40.0059995 21.6231459,37.7362716 19.0543659,36.1990932 L19.9627683,34.6849189 C23.1173834,36.5702244 26.3507233,39.6757643 25.0803913,42.2179618 L24.8421722,42.5129242 C24.0503234,43.1473234 23.2272914,43.9826242 22.3950578,44.9968449 C21.4871667,46.1061489 20.2613091,46.4680785 19.0492539,46.4680785" id="Fill-5" fill="#8DD0D8"></path><path d="M81.2761454,44.694828 C81.2567198,44.5833864 80.8595175,41.9547961 83.0883494,39.8685889 C85.3376293,37.7660234 87.5848644,38.3544146 87.6799476,38.3774186 L87.2137333,40.0822705 L87.4468404,39.2306114 L87.2260021,40.0853377 C87.1641469,40.0659121 85.7931085,39.7571474 84.2968262,41.1578353 C82.7724278,42.5851057 83.0091134,44.3431224 83.0198486,44.4172464 L81.2761454,44.694828 Z" id="Fill-7" fill="#FB951D"></path><path d="M74.670726,59.3733732 C73.6692852,59.3733732 72.7736628,59.0232012 72.0774085,58.327458 C70.9149397,57.1614109 70.6235557,55.2730381 71.4010909,53.9321606 L72.9290676,54.8190925 C72.5507797,55.4672941 72.7312332,56.4815149 73.3283148,57.0785965 C74.0843796,57.8382396 75.3015468,57.7901868 76.7574443,56.9513077 L77.6407979,58.4792844 C76.6102187,59.076366 75.5949756,59.3733732 74.670726,59.3733732" id="Fill-9" fill="#FB951D"></path><path d="M61.7534181,56.8099098 C59.5787734,54.8085618 59.9759757,53.0188507 60.4074285,52.1303851 C61.3291221,50.2241204 63.9316412,49.1270852 65.625758,49.3780844 L65.3466428,51.1233211 C64.4331284,50.96945 62.5733829,51.7132459 61.9972605,52.8987187 C61.6123269,53.6936347 61.9338717,54.5734098 62.9511596,55.5099282 L61.7534181,56.8099098 Z" id="Fill-11" fill="#FB951D"></path><path d="M45.2233065,37.606938 C44.5873738,37.606938 43.9177018,37.3953012 43.2623434,36.9745836 C41.5927643,35.9041308 40.3791755,33.7330645 40.3791755,31.8181094 L42.1458826,31.8181094 C42.1458826,33.2821861 43.1989546,34.8352117 44.2162426,35.4875029 C44.5255186,35.684826 45.1139097,35.9905236 45.6138633,35.7574164 C47.3841489,34.9481869 49.3021712,34.1394685 51.3658855,33.6778549 C52.3867519,32.6252941 52.5421567,29.8305638 51.7099231,27.0199863 L53.4045511,26.5200327 C54.3282894,29.6414198 54.3584502,33.5296069 52.3407439,35.1741373 L52.1730703,35.3106277 L51.9629671,35.3530573 C49.979,35.7661068 48.0921608,36.5646012 46.3469241,37.3630956 C45.9916401,37.527702 45.6138633,37.606938 45.2233065,37.606938" id="Fill-13" fill="#8DD0D8"></path><path d="M39.278613,40.1279718 L38.8548283,40.0783854 C37.4628307,39.9250254 35.3694668,39.691407 32.9934093,39.8432334 C32.7086709,39.926559 31.9965693,39.9158238 31.0902117,39.2533086 C29.1665662,37.8454639 27.0041902,33.8984888 26.7112727,29.7332314 L28.4738902,29.609521 C28.7233558,33.1868984 30.5570301,36.6528343 32.1131229,37.8137695 C32.5302621,38.1225343 32.7173613,38.1036199 32.7296301,38.1036199 C35.4078068,37.9200991 37.5967651,38.1598519 39.0439723,38.3224135 L39.1584811,38.3346823 C40.640961,37.9267447 44.3486945,36.4289287 45.5658616,35.7837944 L46.3945168,37.3439767 C45.1471889,38.0064919 41.0223162,39.6929406 39.4375962,40.0911654 L39.278613,40.1279718 Z" id="Fill-15" fill="#8DD0D8"></path><path d="M66.0566995,9.10304035 C60.6579165,6.72340442 54.9498575,5.35952287 50.3976216,5.35952287 L50.3976216,3.59281572 C55.2575999,3.59281572 61.0714773,4.97458928 66.7688011,7.4845812 L66.0566995,9.10304035 Z" id="Fill-17" fill="#0D2D4E"></path><path d="M20.6410285,12.2491184 L19.3568941,11.033996 C24.2485667,5.87343221 31.4048553,5.06266904 39.5717862,4.59236505 L39.676071,6.35600499 C31.8904953,6.80637218 25.0838675,7.56039216 20.6410285,12.2491184" id="Fill-19" fill="#0D2D4E"></path><path d="M3.79990284,31.2828319 L2.04750929,31.0650607 C2.89712367,24.2180481 5.71690277,19.647409 11.1862314,16.2504852 L12.1171266,17.7518795 C7.14570673,20.8420834 4.58101641,25.0144977 3.79990284,31.2828319" id="Fill-21" fill="#0D2D4E"></path><path d="M12.4246134,35.2680958 L10.6579062,35.2680958 C10.6579062,30.6274224 14.4351629,26.8516993 19.0758363,26.8516993 C19.3339923,26.8516993 19.5952155,26.8660129 19.8656403,26.8961737 C19.8671739,23.0309906 22.4553794,19.7449971 26.1314185,18.7854748 C26.0874553,17.183374 26.5679833,14.5967021 27.2851969,13.7153933 L28.6541904,14.8303205 C28.1225424,15.4856789 27.7391425,18.5753716 27.9333985,19.1760315 L28.2513648,20.1600915 L27.2443009,20.3558811 C23.9920466,20.8686147 21.6318363,23.6209154 21.6318363,26.8977073 C21.6318363,27.1890913 21.6763107,27.4666729 21.7187403,27.7473217 L21.9094179,29.044236 L20.6477763,28.8249312 C20.0685867,28.6858848 19.5543195,28.6168728 19.0737915,28.6168728 C15.4079765,28.6184064 12.4246134,31.6002359 12.4246134,35.2680958" id="Fill-23" fill="#FB951D"></path><g id="Group-27" transform="translate(32.716799, 0.397202)"><mask id="mask-2" fill="white"><use xlink:href="#path-1"></use></mask><g id="Clip-26"></g><path d="M0.661288299,28.3466014 C0.585630701,28.0322134 -1.14784844,20.5983433 2.24600825,15.4224434 C3.98255459,12.7739163 4.64864817,9.63668201 5.13428815,7.34343888 C5.39397775,6.11758132 5.60101374,5.14783495 5.91335693,4.52570457 C7.47711768,1.43396707 10.2186832,-0.182447274 13.2342519,0.158523115 C15.698747,0.450418305 17.6806693,2.01520145 18.1647757,4.05591179 C19.0675549,7.83828047 17.8079581,11.6523435 14.3118615,15.7174058 C13.4745159,16.6907306 12.9357111,18.3582649 12.7486119,20.5385329 L10.9890616,20.3902849 C11.2078552,17.7985009 11.8754823,15.8390714 12.9725175,14.5636274 C16.1138414,10.9105924 17.2180334,7.70025647 16.4461214,4.46384938 C16.1368454,3.16386782 14.7305342,2.11488545 13.0256823,1.91296146 C11.9393823,1.79487426 9.23820162,1.86337506 7.48938648,5.32266535 C7.27928328,5.73775973 7.08451609,6.6528077 6.8621441,7.71099167 C6.34838811,10.1386804 5.64344334,13.4650587 3.722865,16.3921898 C0.751259496,20.9234664 2.36102824,27.8645398 2.37840904,27.9350854 L0.661288299,28.3466014 Z" id="Fill-25" fill="#0D2D4E" mask="url(#mask-2)"></path></g><path d="M39.3776836,58.9650267 L38.3532388,57.5270211 C38.7944044,57.2110995 49.2898513,49.8569765 58.522123,54.1178284 C63.1224116,56.2428867 69.8477586,56.2587339 72.6905417,52.5847397 C73.5508913,51.4677677 74.1602417,50.2255517 74.7486329,49.0267878 C76.0204984,46.4365375 77.33326,43.7583607 81.0236127,43.6719679 C82.4651966,43.6469191 83.9292734,44.2475791 85.0493125,45.3481927 C86.1427693,46.4186455 86.7439405,47.7917286 86.740378,49.2103086 C86.7311605,52.8648772 84.6025237,54.9638644 83.5796126,55.9724619 L83.2882286,56.2643571 L82.0076726,55.04719 L82.3399526,54.71491 C83.2580678,53.810086 84.9664981,52.1267045 84.9736549,49.2082638 C84.9751885,48.2702118 84.5657173,47.3459622 83.8147646,46.6113679 C83.0602334,45.8747287 82.0639046,45.4381639 81.1330095,45.4381639 C81.1084719,45.4381639 81.0870015,45.4402087 81.0639975,45.4402087 C78.5678079,45.4984855 77.6844544,47.056623 76.3348864,49.8073901 C75.7362712,51.0260909 75.0573977,52.4078645 74.0876513,53.6674612 C70.6713018,58.0888299 63.115766,58.1864691 57.7819054,55.7250412 C49.4825737,51.8828621 39.4763452,58.8944811 39.3776836,58.9650267" id="Fill-28" fill="#FB951D"></path><path d="M72.3493669,28.9065699 L70.7452213,28.1683971 C71.5176445,26.4967731 71.3796205,24.2812324 70.3976053,22.5237269 C69.5280541,20.9712125 68.1360566,20.0065782 66.4736342,19.8082326 C64.1701671,19.5418974 62.449468,20.4554117 61.3698136,22.5431525 L59.7994073,21.7323893 C61.2108304,19.0010478 63.6507879,17.6923758 66.6822038,18.055839 C68.9187038,18.3211518 70.7840725,19.6017078 71.9358061,21.6618437 C73.1887572,23.8947652 73.3508076,26.7390819 72.3493669,28.9065699" id="Fill-30" fill="#8DD0D8"></path><path d="M11.9810963,21.4956526 C10.5287771,20.0821846 10.4071115,18.5485847 10.4071115,16.9694879 C10.4071115,13.7877792 13.5642826,10.0902698 17.6359905,10.0902698 C20.6444024,10.0902698 22.7960431,11.1009121 24.0311023,13.0935697 L22.5297079,14.024976 C21.6248839,12.5655001 20.0243168,11.8554433 17.6344569,11.8554433 C14.608153,11.8554433 12.1717738,14.6517072 12.1717738,16.9679543 C12.1717738,18.5225135 12.3220666,19.3613927 13.2105322,20.2273654 L11.9810963,21.4956526 Z" id="Fill-32" fill="#8DD0D8"></path><path d="M8.83302451,45.3198722 C3.96231107,45.3198722 0,41.3575611 0,36.4873589 C0,32.6538702 2.44660312,29.2773943 6.0878806,28.0883432 L6.63742059,29.7686575 C3.72204708,30.7189783 1.76670714,33.420159 1.76670714,36.4873589 C1.76670714,40.3842364 4.93563584,43.5536763 8.83302451,43.5536763 C9.58039889,43.5536763 10.3170381,43.4386563 11.019938,43.2091275 L11.5658996,44.8889306 C10.6861245,45.1752026 9.76596448,45.3198722 8.83302451,45.3198722" id="Fill-34" fill="#FB951D"></path><path d="M66.911886,76.177079 C57.7184655,76.177079 50.5989833,71.4213855 47.6825874,63.2207154 L49.3450098,62.6272122 C53.4008704,74.032595 64.0956853,74.638367 68.4945611,74.3612966 C75.4887993,73.9318886 80.8293055,70.7466016 81.4299655,68.0438872 C81.6508039,67.0526705 81.5040895,66.3001841 80.9688631,65.6729417 C78.6439256,62.9543802 69.7546691,63.1680618 63.2726533,63.5744658 L63.1612117,61.8108258 C74.3702938,61.1207059 80.0942,61.9299354 82.3097407,64.5263202 C83.2104751,65.5809257 83.4931687,66.8936873 83.1537319,68.4272872 C82.2954271,72.2940039 75.9038937,75.6771254 68.6024243,76.1239142 C68.0334588,76.1596982 67.466538,76.177079 66.911886,76.177079" id="Fill-36" fill="#0D2D4E"></path><path d="M14.2123308,51.1337496 C9.55734377,51.1337496 5.91299909,48.6201793 5.91299909,45.4118882 C5.91299909,44.994749 5.97638789,44.578121 6.10163188,44.1752955 L7.78910303,44.703365 C7.71497903,44.9364722 7.67766143,45.1752026 7.67766143,45.4118882 C7.67766143,47.5563721 10.6686925,49.3675537 14.2107972,49.3675537 C15.4770396,49.3675537 16.9436723,49.1446705 17.8566755,48.8144353 L18.4573355,50.4768576 C17.3536547,50.8761048 15.6856092,51.1337496 14.2123308,51.1337496" id="Fill-38" fill="#0D2D4E"></path><path d="M21.8633587,60.2829513 C20.9043476,60.2829513 19.9785644,60.0641577 19.111058,59.6332161 C17.6326677,58.8981106 16.5284757,57.6298234 16.0039845,56.0624843 C15.4789821,54.4977011 15.5955357,52.8209652 16.3321749,51.3425748 C17.6873661,48.6235021 21.30155,42.0658287 25.5981858,39.9193 C30.670312,37.3898825 36.3318519,38.020192 39.0509246,38.3207776 L39.1587878,38.3330464 C40.6407565,37.9251089 44.3490012,36.4267817 45.5661684,35.7821585 C49.2810586,33.8160834 55.3367336,32.2119378 60.6966655,33.8089266 C61.2871015,32.1061194 62.7322638,30.6185275 63.3416142,29.9912851 L63.5092878,29.8179883 L64.9667189,30.8076715 C64.8946397,30.9293371 64.8097805,31.0157299 64.6099013,31.2222547 C64.0537158,31.7947987 62.3611326,33.5369682 62.2179966,35.0398961 L62.106555,36.1900961 L61.0253671,35.7821585 C55.9992488,33.8830506 50.0018506,35.4345425 46.3927787,37.3438745 C45.1474956,38.0043448 41.0226229,39.691816 39.4358582,40.0890184 L39.2784086,40.1278696 L38.8546238,40.0787944 C36.3108927,39.7976344 30.9985024,39.2041312 26.3879898,41.5024863 C22.5662587,43.4102847 19.1872268,49.5707557 17.9117829,52.1323788 C17.3867805,53.188518 17.3039661,54.3862595 17.6781645,55.5042539 C18.0528741,56.6227594 18.8406332,57.529117 19.8972836,58.0541194 C20.5173692,58.3608394 21.1778396,58.518289 21.8618251,58.518289 C23.2926739,58.518289 24.6493986,57.6512938 25.8946818,55.9408187 C27.175749,54.1863803 28.0182065,52.217238 28.2727841,50.389698 L28.4563049,49.0702909 L29.5993481,49.7522317 C31.2086056,50.7132876 33.6731008,50.872782 35.5952127,50.1499453 C36.7295655,49.7205373 37.492787,49.0462645 37.7488982,48.2472589 L38.1195182,47.0934806 L39.105623,47.7984253 C40.8702853,49.0600669 44.6173812,49.1750869 47.4530075,48.0565813 C48.9457115,47.4666565 49.9011442,46.629311 50.074441,45.7597598 L50.3392426,44.4331958 L51.447013,45.2086862 C53.1733353,46.417163 55.2789681,46.7790926 57.6887648,46.297031 C63.4525446,45.1360958 69.1662268,39.7127752 72.0350811,35.1671849 L73.5293187,36.1088153 C70.4662084,40.9636816 64.3113606,46.7652902 58.0363808,48.0264205 C55.5386576,48.5284189 53.3001129,48.2595277 51.3657322,47.2279262 C50.7650722,48.2314117 49.6434994,49.0881829 48.0991643,49.6959997 C45.4864212,50.729646 41.6069245,51.0246084 38.962487,49.7542765 C38.384831,50.6284284 37.441667,51.3369516 36.2188767,51.798054 C34.1924799,52.5684324 31.7509888,52.5433836 29.7956489,51.798054 C29.3626625,53.5540259 28.5079361,55.3575395 27.323997,56.9816218 C25.7270082,59.1721138 23.8897555,60.2829513 21.8633587,60.2829513" id="Fill-40" fill="#0D2D4E"></path><path d="M61.2357259,86.3866117 C61.3384771,86.9356405 61.1932963,87.4959156 60.8344339,87.9253236 C60.4796611,88.3547316 59.9551699,88.6016412 59.3964283,88.6016412 C58.6020235,88.6016412 57.8914556,88.0986204 57.6338108,87.3492013 C55.9995044,82.6430942 52.2437181,72.8490137 47.1859055,65.9396347 C46.5535511,66.0546547 45.8716104,66.1395139 45.1774008,66.2151715 C50.5812958,73.2201449 54.6514701,84.1444886 55.962698,87.928902 C56.471342,89.3878668 57.849026,90.3683484 59.3964283,90.3683484 C60.4811947,90.3683484 61.5010386,89.8898652 62.194737,89.0540532 C62.8894578,88.2182412 63.1721514,87.1283629 62.9707386,86.0630221 L61.3343875,77.3399056 C60.6897643,77.1962584 60.0589435,77.0219392 59.4424363,76.8292168 L61.2357259,86.3866117 Z" id="Fill-42" fill="#0D2D4E"></path><path d="M38.7821356,64.7419954 C29.4210415,64.7419954 23.6337465,62.6399411 23.2994217,59.1152172 L25.0594833,58.9495884 C25.2818553,61.3205339 30.9244807,62.9737547 38.7821356,62.9737547 C47.4086353,62.9737547 50.646576,62.0254787 52.6412784,58.9086924 L54.1288703,59.861058 C51.4895448,63.9874642 46.8892562,64.7419954 38.7821356,64.7419954" id="Fill-44" fill="#FB951D"></path><path d="M75.2273716,37.5470253 C72.9377069,37.5470253 71.0012814,35.7271534 71.0012814,33.5724455 L72.7679885,33.5724455 C72.7679885,34.7487166 73.9166549,35.7803182 75.2273716,35.7803182 C75.8985772,35.7803182 76.5309316,35.2588942 76.848898,34.9501294 L78.0839572,36.2133046 C77.4602932,36.8206102 76.4588524,37.5470253 75.2273716,37.5470253" id="Fill-46" fill="#0D2D4E"></path><path d="M50.3552943,46.5918911 C49.4453583,45.7882848 48.9684087,44.7847992 48.9776103,43.687764 C48.9929463,41.1982201 51.5070279,39.0061946 51.6128462,38.9141786 L52.7666246,40.2535225 C52.2068606,40.7376289 50.7473847,42.3044569 50.7422727,43.7036112 C50.7402279,44.288424 50.9963391,44.7986016 51.5249199,45.2668608 L50.3552943,46.5918911 Z" id="Fill-48" fill="#0D2D4E"></path><path d="M37.7365272,48.9027707 C37.6393992,48.7857059 36.7560456,47.6697563 35.9483496,44.5688172 L37.65678,44.1240732 C38.3601912,46.8180971 39.0932519,47.7684179 39.0983639,47.7776195 L37.7365272,48.9027707 Z" id="Fill-50" fill="#0D2D4E"></path><path d="M22.0453459,23.184504 C18.436274,22.080312 17.6536269,18.6266449 17.7420645,16.955021 L19.5051932,17.0455034 C19.5000812,17.1871058 19.3865948,20.5242193 22.5611467,21.4954992 L22.0453459,23.184504 Z" id="Fill-52" fill="#FB951D"></path><path d="M46.4528959,22.2359724 C45.6436663,20.9656404 43.6157359,20.7325332 42.5151224,21.7942956 L41.2907984,20.5208965 C42.100028,19.7448949 43.1689472,19.3154869 44.3048335,19.3154869 C45.7975375,19.3154869 47.1578406,20.0526373 47.9455998,21.2856516 L46.4528959,22.2359724 Z" id="Fill-54" fill="#0D2D4E"></path><path d="M28.0888544,51.5721036 C28.085276,51.1636548 27.9283376,49.9802269 27.2463968,49.4363101 C26.8313024,49.1060749 26.2536464,49.0268389 25.4709993,49.1975797 L25.0947561,47.4717685 C26.4090512,47.1819182 27.5096648,47.3817973 28.3572344,48.0637381 C29.8131319,49.2333637 29.8555615,51.3333732 29.8555615,51.5664804 L28.0888544,51.5664804 L28.9722079,51.5664804 L28.0888544,51.5721036 Z" id="Fill-56" fill="#0D2D4E"></path></g></g></g></g></g></g></svg> 