<?xml version="1.0" encoding="UTF-8"?> <svg xmlns="http://www.w3.org/2000/svg" xmlns:xlink="http://www.w3.org/1999/xlink" width="67px" height="95px" viewBox="0 0 67 95" version="1.1"><title>vidant-virtual-ico</title><g id="Homepage-(v8)" stroke="none" stroke-width="1" fill="none" fill-rule="evenodd"><g id="Homepage-A" transform="translate(-1164.000000, -1075.000000)"><g id="Services-Section" transform="translate(158.000000, 869.000000)"><g id="Vidant-Virtual" transform="translate(952.000000, 206.000000)"><g id="vidant-virtual-ico" transform="translate(54.000000, 0.000000)"><path d="M64.4554187,13.3351011 C63.4072139,12.4365843 62.0635211,12.0046275 60.6945563,12.1076595 C59.3123723,12.2138019 58.0584924,12.8533779 57.163086,13.9050819 L55.4686956,15.8848515 L55.4686956,18.4412114 L58.4255195,14.9828355 C59.0336027,14.2686099 59.8839083,13.8370419 60.8205275,13.7639475 C60.9157835,13.7569491 61.0067627,13.7522835 61.0981307,13.7522835 C61.9336619,13.7522835 62.7307019,14.0477715 63.3706667,14.5959795 L63.3722219,14.5975347 C64.0864475,15.2071731 64.5184043,16.0574787 64.5914987,16.9929315 C64.6645931,17.9264402 64.3687163,18.8315666 63.7590779,19.544237 L55.4671404,29.2451857 L55.4671404,31.8015457 L65.0215115,20.6239346 C65.920417,19.5741746 66.3554842,18.2386466 66.2473978,16.8615171 C66.1397002,15.4847763 65.5067339,14.2320627 64.4554187,13.3351011" id="Fill-1" fill="#0D2D4E"></path><path d="M56.6198157,32.2283314 C56.5268925,32.2283314 56.4335805,32.2318306 56.3391021,32.2399954 C55.4040381,32.3130898 54.554899,32.7466018 53.9487598,33.457717 L53.4689806,34.0658002 C52.1894398,35.5638466 52.3643998,37.7846721 53.8360078,39.0404961 C55.2527949,40.2531633 57.5785965,40.0688721 58.7842653,38.6567505 L59.2593789,38.0506113 C59.8939005,37.3095585 60.1913325,36.402877 60.1182381,35.465869 C60.0451437,34.5323602 59.6112429,33.6836098 58.8989613,33.0739714 L58.8989613,33.0720274 C58.2558861,32.5222642 57.4553469,32.2283314 56.6198157,32.2283314 M56.1147645,41.5455345 C54.8838238,41.5455345 53.689819,41.1034689 52.7559214,40.3029297 C50.5899166,38.4541857 50.334475,35.1816562 52.1867182,33.012541 L52.6649422,32.4044578 C53.5801774,31.3298146 54.8325022,30.6902386 56.2127421,30.5821522 C57.5715981,30.4725106 58.9285101,30.9095218 59.9786589,31.8115378 C61.0303629,32.7084994 61.6660509,33.959269 61.7741373,35.3363986 C61.8802797,36.7135282 61.4452125,38.0521665 60.5451405,39.1019265 L60.0715821,39.7065105 C59.0649789,40.8861297 57.6318621,41.5455345 56.1147645,41.5455345" id="Fill-4" fill="#0D2D4E"></path><path d="M57.6130831,41.9673436 C57.5201599,41.9673436 57.4287919,41.9708428 57.3358687,41.9790076 C56.3988607,42.052102 55.5481663,42.4840588 54.9424159,43.1947852 L52.7429743,45.7332604 C52.1364463,46.4424315 51.8409584,47.3495019 51.9140528,48.2830107 C51.9871472,49.2165195 52.4206591,50.0683803 53.1333295,50.6780187 C54.5450623,51.8906859 56.8724191,51.7063947 58.0815871,50.2911627 L60.2759742,47.7561867 C60.8821134,47.0454603 61.1795454,46.1383899 61.106451,45.2048812 C61.0333566,44.2713724 60.5998446,43.420678 59.887563,42.8110396 C59.2475983,42.2612764 58.4486143,41.9673436 57.6130831,41.9673436 M55.4089759,53.1830571 C54.1764799,53.1830571 52.9840303,52.7409915 52.051688,51.9404523 C51.001928,51.0454347 50.3639072,49.7911659 50.2577648,48.4124811 C50.1516224,47.0353515 50.5851344,45.6998236 51.4836512,44.6500636 L53.6815375,42.1135324 C54.5734447,41.0672716 55.8257695,40.4292508 57.2063983,40.3231084 C58.5866383,40.2099676 59.9217774,40.6500892 60.9688158,41.548606 C62.0185758,42.4475116 62.6565966,43.6998364 62.7642942,45.076966 C62.8704366,46.4525403 62.4353694,47.7896235 61.5368526,48.8409387 L59.3424655,51.3759147 C58.3591903,52.5217083 56.9252959,53.1830571 55.4089759,53.1830571" id="Fill-6" fill="#0D2D4E"></path><path d="M57.4771586,53.8807975 C57.3857906,53.8807975 57.2940338,53.8858519 57.1995554,53.8924615 C56.2629362,53.9655559 55.4122418,54.3990679 54.8041586,55.1117383 L52.6086051,57.6478807 C52.0020771,58.3574407 51.7046451,59.2645111 51.7777395,60.199575 C51.8508339,61.134639 52.2847347,61.9833894 52.9954611,62.5930278 C54.422357,63.8091942 56.7411602,63.6198486 57.9437186,62.207727 L60.1427714,59.6711958 C60.7492994,58.9620247 61.0451762,58.0533991 60.971693,57.1198903 C60.8989874,56.1863815 60.4654754,55.3356871 59.752805,54.7260487 L59.7512498,54.7244935 C59.1097298,54.1762855 58.312301,53.8807975 57.4771586,53.8807975 M55.2746066,65.0996214 C54.047165,65.0996214 52.8539379,64.6579446 51.9173187,63.8574054 C50.8660035,62.9584998 50.2279827,61.706175 50.1218403,60.3290454 C50.0156979,58.9519159 50.4507651,57.6148327 51.3492819,56.5650727 L53.5436691,54.0300967 C54.4355762,52.9818919 55.6894562,52.3423159 57.0716402,52.2361735 C58.440605,52.1331415 59.7827426,52.5650983 60.8325026,53.4636151 C61.8822625,54.3605767 62.5218385,55.6132903 62.6279809,56.9919751 C62.7360673,58.3687159 62.3006113,59.7061878 61.4020945,60.7559478 L59.204597,63.2909238 C58.2263762,64.4367174 56.7924818,65.0996214 55.2746066,65.0996214" id="Fill-8" fill="#0D2D4E"></path><path d="M56.5104852,31.4110738 L56.5104852,6.20283736 C56.5104852,2.9917382 53.9074692,0.388722235 50.69637,0.388722235 L22.4578264,0.388722235 C19.2471161,0.388722235 16.6441001,2.9917382 16.6441001,6.20283736 L16.6441001,12.8019397 C16.6441001,13.2611125 17.0169593,13.6331941 17.4765209,13.6324165 C17.9341385,13.6316389 18.3050537,13.2599461 18.3050537,12.8019397 L18.3050537,6.20283736 C18.3050537,3.90930619 20.1646841,2.05006461 22.4578264,2.05006461 L50.69637,2.05006461 C52.9899012,2.05006461 54.8495316,3.90930619 54.8495316,6.20283736 L54.8495316,31.8760786 C55.3689684,31.6105282 55.93545,31.4526754 56.5104852,31.4110738" id="Fill-10" fill="#0D2D4E"></path><path d="M54.8493372,64.2143627 L54.8493372,68.5397626 C54.8493372,70.8305722 52.9869852,72.6925354 50.6961756,72.6925354 L29.7468543,72.6925354 C29.7950655,73.2341337 29.8366671,73.7838969 29.8611615,74.3538777 L50.6961756,74.3538777 C53.9022204,74.3538777 56.5102908,71.7458074 56.5102908,68.5397626 L56.5102908,64.1346587 C56.1728124,64.2174731 55.8306684,64.2691835 55.4838588,64.2691835 C55.2711852,64.2691835 55.0600668,64.2443003 54.8493372,64.2143627" id="Fill-13" fill="#0D2D4E"></path><path d="M36.9094834,86.0974649 C43.8095169,86.4096713 49.9490576,81.4781322 52.6881535,73.4583547 L51.1150688,72.9233659 C49.1699024,78.6177306 44.1598257,85.0410954 36.4627522,84.408129 L35.8826626,84.3599178 L31.2932674,94.2867592 L33.1256818,94.2867592 L36.9094834,86.0974649 Z" id="Fill-15" fill="#0D2D4E"></path><path d="M11.2407133,76.6325956 L7.51834214,64.8006342 C6.83716455,62.6280198 6.66920295,59.0549479 7.14431655,56.8407319 L9.77066051,44.9788328 L9.79048931,31.1655466 L10.6209661,31.1655466 C13.8266221,31.1655466 16.4346924,33.7732282 16.4346924,36.979273 L16.4346924,52.8874135 L17.012838,53.4239575 L17.17419,53.5417639 C17.2838316,53.6031943 28.1904491,59.8757046 28.1904491,74.3219573 L29.8514026,74.3219573 C29.8514026,59.7244614 19.3052028,52.8940231 18.09759,52.1580247 L18.09759,36.979273 C18.09759,32.857993 14.7438012,29.5042042 10.6225213,29.5042042 L8.12953573,29.5042042 L8.12953573,44.708228 L5.52146537,56.4869239 C4.98647657,58.9853527 5.16610217,62.8539126 5.93359336,65.2990758 L9.44679011,76.4681332 L0.000116639998,94.286837 L1.87879822,94.286837 L11.2407133,76.6325956 Z" id="Fill-18" fill="#0D2D4E"></path><path d="M36.3680405,45.6214415 C36.3396581,45.6214415 36.3112757,45.6214415 36.2832821,45.6206639 C35.9388053,45.6148319 35.6814197,45.2987375 35.7296309,44.9577599 L35.7755093,44.6319455 C35.8163333,44.3395679 36.0702197,44.1335039 36.3660965,44.1335039 C36.3789269,44.1335039 36.3921461,44.1335039 36.4049765,44.1335039 C38.4660053,44.1140639 40.0869124,42.3485231 40.0869124,40.2874943 L40.0869124,39.0787152 C40.0869124,37.0989456 38.5958644,35.368008 36.6203717,35.2369824 C34.4551445,35.0927376 32.6487797,36.8139552 32.6487797,38.9473008 L32.6487797,40.4142431 L31.1608421,40.4142431 L31.1608421,39.098544 C31.1608421,36.2980176 33.3089621,33.884736 36.1059893,33.7471008 C39.0958612,33.5997456 41.57485,35.9896992 41.57485,38.9473008 L41.57485,40.4142431 C41.57485,43.2859199 39.2393284,45.6214415 36.3680405,45.6214415" id="Fill-21" fill="#0D2D4E"></path><path d="M45.1126578,50.1216848 C44.8296114,49.9342832 44.5831122,49.8048128 44.334669,49.7157776 L38.5994803,47.6298656 L38.5994803,43.3868913 L38.8448131,43.1668305 C39.6449635,42.4467729 40.0870291,41.4677745 40.0870291,40.4145153 L40.0870291,38.9475729 C40.0870291,36.8974306 38.4194659,35.2283122 36.3681571,35.2283122 C34.3160707,35.2283122 32.6485076,36.8974306 32.6485076,38.9475729 L32.6485076,40.4145153 C32.6485076,41.4677745 33.0905732,42.4452177 33.8911124,43.1668305 L34.1364451,43.3868913 L34.1364451,47.6298656 L28.4024228,49.7157776 C28.1543684,49.806368 27.9074804,49.9342832 27.6248228,50.1216848 L26.8017332,48.881024 C27.181202,48.6310256 27.5385092,48.4451792 27.8938724,48.3168752 L32.6485076,46.5882704 L32.6485076,44.0338545 C31.6994468,43.0610769 31.1609588,41.7609297 31.1609588,40.4129601 L31.1609588,38.9460177 C31.1609588,36.0747298 33.4964804,33.7392082 36.3681571,33.7392082 C39.2394451,33.7392082 41.5745778,36.0747298 41.5745778,38.9460177 L41.5745778,40.4145153 C41.5745778,41.7609297 41.0364787,43.0610769 40.0870291,44.0354097 L40.0870291,46.5898256 L44.842053,48.3184304 C45.1974162,48.4463456 45.5547234,48.6325808 45.9338034,48.8821904 L45.1126578,50.1216848 Z" id="Fill-23" fill="#0D2D4E"></path><path d="M36.3680405,30.7443207 C30.2148918,30.7443207 25.2102582,35.7489542 25.2102582,41.902103 C25.2102582,48.0552517 30.2148918,53.0598852 36.3680405,53.0598852 C42.5208004,53.0598852 47.5254339,48.0552517 47.5254339,41.902103 C47.5254339,35.7489542 42.5208004,30.7443207 36.3680405,30.7443207 M36.3680405,54.5478228 C29.3949126,54.5478228 23.7227094,48.8748421 23.7227094,41.902103 C23.7227094,34.9293639 29.3949126,29.2567719 36.3680405,29.2567719 C43.3407796,29.2567719 49.0133715,34.9293639 49.0133715,41.902103 C49.0133715,48.8748421 43.3407796,54.5478228 36.3680405,54.5478228" id="Fill-25" fill="#8DD0D8"></path><path d="M35.9743416,50.227244 L32.6878152,48.1930424 C32.3616121,47.9912552 32.2609129,47.5627976 32.4627001,47.2365944 C32.6644872,46.9103912 33.0929448,46.8093032 33.419148,47.0114792 L35.9961144,48.6067256 C36.21462,48.7416392 36.4895016,48.7451384 36.7115064,48.6160568 L39.5419704,46.967156 C39.8736168,46.7739224 40.2989639,46.8858968 40.4918087,47.2175432 L40.4921975,47.2175432 C40.6850423,47.5491896 40.5730679,47.9745368 40.2418103,48.1677704 L36.6897336,50.2365752 C36.4681176,50.3660456 36.1928472,50.3625464 35.9743416,50.227244" id="Fill-27" fill="#0D2D4E"></path><path d="M41.8571966,5.66749864 L31.2962223,5.66749864 C30.1698687,5.66749864 29.1589887,5.01120425 28.6519935,3.95833387 L27.7873024,2.14419309 C27.6737728,1.90430349 27.6854368,1.6197019 27.8199616,1.3918651 C27.9544863,1.1632507 28.1924319,1.02367151 28.4482623,1.02367151 L44.7051565,1.02367151 C44.9605981,1.02367151 45.1989325,1.1632507 45.3330685,1.3906987 C45.4691485,1.6181467 45.4812013,1.90274829 45.3657277,2.14302669 L44.5014253,3.95561227 C43.9959853,5.01120425 42.9831614,5.66749864 41.8571966,5.66749864" id="Fill-29" fill="#0D2D4E"></path><path d="M9.96156131,14.0458664 C9.52688291,14.0458664 9.17113092,14.4016184 9.17113092,14.8362968 L9.17113092,24.3214614 C9.17113092,24.7561398 9.52688291,25.1118918 9.96156131,25.1118918 L21.0279756,25.1118918 C21.2379276,25.1118918 21.4389372,25.1958726 21.58707,25.3443942 L24.9801275,28.737063 L24.9801275,25.902711 C24.9801275,25.4660886 25.3339355,25.1118918 25.7701691,25.1118918 L27.3514187,25.1118918 C27.7860971,25.1118918 28.1418491,24.7561398 28.1418491,24.3214614 L28.1418491,14.8362968 C28.1418491,14.4016184 27.7860971,14.0458664 27.3514187,14.0458664 L9.96156131,14.0458664 Z M24.6718091,30.6639558 L20.700606,26.6927526 L9.96156131,26.6927526 C8.65441573,26.6927526 7.59027014,25.6289958 7.59027014,24.3214614 L7.59027014,14.8362968 C7.59027014,13.5287624 8.65441573,12.4650056 9.96156131,12.4650056 L27.3514187,12.4650056 C28.6585643,12.4650056 29.7227098,13.5287624 29.7227098,14.8362968 L29.7227098,24.3214614 C29.7227098,25.6289958 28.6585643,26.6927526 27.3514187,26.6927526 L26.5605995,26.6927526 L26.5605995,29.8832454 C26.5605995,30.193119 26.4357947,30.480831 26.2099019,30.6911718 C26.0046155,30.8840166 25.7355659,30.9897701 25.4529083,30.9882319 C25.1570315,30.9882319 24.8802059,30.8742966 24.6718091,30.6639558 L24.6718091,30.6639558 Z" id="Fill-31" fill="#0D2D4E"></path><path d="M14.7042214,19.5788791 C14.7042214,20.4521239 13.9966054,21.1597399 13.1233606,21.1597399 C12.2501158,21.1597399 11.5424998,20.4521239 11.5424998,19.5788791 C11.5424998,18.7056343 12.2501158,17.9980183 13.1233606,17.9980183 C13.9966054,17.9980183 14.7042214,18.7056343 14.7042214,19.5788791" id="Fill-33" fill="#FB951D"></path><path d="M19.4469204,19.5788791 C19.4469204,20.4521239 18.7393044,21.1597399 17.8660596,21.1597399 C16.9928148,21.1597399 16.2851988,20.4521239 16.2851988,19.5788791 C16.2851988,18.7056343 16.9928148,17.9980183 17.8660596,17.9980183 C18.7393044,17.9980183 19.4469204,18.7056343 19.4469204,19.5788791" id="Fill-35" fill="#FB951D"></path><path d="M24.1895805,19.5788791 C24.1895805,20.4521239 23.4819645,21.1597399 22.6087197,21.1597399 C21.7354749,21.1597399 21.0278589,20.4521239 21.0278589,19.5788791 C21.0278589,18.7056343 21.7354749,17.9980183 22.6087197,17.9980183 C23.4819645,17.9980183 24.1895805,18.7056343 24.1895805,19.5788791" id="Fill-37" fill="#FB951D"></path></g></g></g></g></g></svg> 